<svg width="179" height="231" viewBox="0 0 179 231" fill="none" xmlns="http://www.w3.org/2000/svg">
<path d="M113.1 230.1C105.1 230.1 98.1 228.4 92.1 225C86.3 221.8 83.4 216.1 83.4 207.9C83.4 202.7 84.7 196.9 87.3 190.5C90.9 194.5 94.2 197.3 97.2 198.9C100.4 200.5 103.8 201.3 107.4 201.3C117.4 201.3 124.8 195.7 129.6 184.5C134.6 173.3 137.1 160.9 137.1 147.3C137.1 121.9 127.6 109.2 108.6 109.2C103.2 109.2 98.6 109.5 94.8 110.1L70.2 225H27L67.8 34.2L112.2 28.2L98.1 94.8H99.9C107.5 94.8 114.6 92.4 121.2 87.6C127.8 82.6 133.1 76.4 137.1 69C141.1 61.4 143.1 53.8 143.1 46.2C143.1 37 139.8 29.3 133.2 23.1C126.8 16.9 116.9 13.8 103.5 13.8C91.3 13.8 79.4 16.6 67.8 22.2C56.2 27.6 46.7 35.8 39.3 46.8C32.1 57.8 28.5 71.1 28.5 86.7C28.5 94.1 29.2 99.3 30.6 102.3C32 105.1 32.7 106.7 32.7 107.1C22.1 107.1 14.1 105 8.7 100.8C3.3 96.4 0.6 89.3 0.6 79.5C0.6 65.9 5.7 53 15.9 40.8C26.1 28.6 39.6 18.8 56.4 11.4C73.2 3.79999 90.9 -1.78814e-05 109.5 -1.78814e-05C123.5 -1.78814e-05 135.3 2.19998 144.9 6.59999C154.5 11 161.6 16.8 166.2 24C171 31.2 173.4 39.1 173.4 47.7C173.4 56.9 170.8 65.8 165.6 74.4C160.4 83 153 90 143.4 95.4C155.4 97.6 164.3 103.2 170.1 112.2C175.9 121 178.8 131.5 178.8 143.7C178.8 155.1 176.6 167.5 172.2 180.9C168 194.3 160.9 205.9 150.9 215.7C141.1 225.3 128.5 230.1 113.1 230.1Z" fill="#FF4D77"/>
</svg>
