<?xml version="1.0" encoding="utf-8"?>
<!-- Generator: Adobe Illustrator 28.0.0, SVG Export Plug-In . SVG Version: 6.00 Build 0)  -->
<svg version="1.1" id="Layer_4" xmlns="http://www.w3.org/2000/svg" xmlns:xlink="http://www.w3.org/1999/xlink" x="0px" y="0px"
	 viewBox="0 0 963.62 925.12" style="enable-background:new 0 0 963.62 925.12;" xml:space="preserve">
<style type="text/css">
	.st0{fill:#BA7C52;stroke:#000000;stroke-width:13;stroke-miterlimit:10;}
	.st1{fill:#42210B;stroke:#000000;stroke-width:10;stroke-miterlimit:10;}
	.st2{fill:#42210B;}
	.st3{stroke:#000000;stroke-width:6;stroke-miterlimit:10;}
	.st4{fill:#FFFFFF;stroke:#FFFFFF;stroke-width:6;stroke-miterlimit:10;}
	.st5{fill:#42210B;stroke:#42210B;stroke-width:6;stroke-miterlimit:10;}
	.st6{opacity:0.49;fill:#FF7F83;stroke:#FF7F83;stroke-width:6;stroke-miterlimit:10;}
</style>
<g>
	<path class="st0" d="M145.75,652.83c0,0-77.74,14.8-72.9-88.7l130.34-13.38L145.75,652.83"/>
	<path class="st0" d="M818.07,639.83c0,0,77.74,14.8,72.9-88.7l-130.34-13.38L818.07,639.83"/>
	<path class="st1" d="M163.99,82.37l188-65.48l182-11.84l157,53.18l65,47.42c0,0,33-9.76,44-31.01c0,0-4,48.29-18,53.11l66,46.35
		l27,187.35c0,0-18.23,159.43,58.38,94.69l24.51-22.26c0,0-9.57,158.38-179.23,113.95s-657.16,14.94-657.16,14.94
		s-68.5,25.62-99.5-47.77c0,0-16.91-21.25-16.96-47.32c0,0,29.15,62.77,50.55,25.11s21.4-226.94,21.4-226.94l17-80.15
		C93.99,185.7,144.99,89.13,163.99,82.37z"/>
	<path class="st1" d="M151.31,666.82c0,0,6.68,57.3-37.32,53.3c0,0,16,90,69,62c0,0-44,32-9,62c0,0,98.51-89.94,161.25-42.47
		s397.75-7.53,397.75-7.53s100,1,80,35c0,0,33.88-23.3,12.94-73.65c0,0,30.06,17.65,53.06-13.35c0,0-102-62-84-120
		S151.31,666.82,151.31,666.82"/>
	<path class="st0" d="M137.49,618.62c0,0,55,300,359,300s329.44-300,329.44-300l-14.44-214l-121-145l-208.78,55.68l-227.84-55.68
		L137.49,419.71V618.62z"/>
	<path class="st0" d="M151.31,666.82"/>
	<g>
		<path class="st2" d="M481.49,185.12c0,0,57.62,146.24,32.38,201c0,0,88.35-40.45,43.35-154.95"/>
		<path d="M481.49,185.12c19.97,48.03,56.05,153.48,34.62,202.03c0,0-3.27-3.27-3.27-3.27c6.39-3.16,12.42-7.37,17.92-11.93
			c29.54-24.44,41.43-60.19,36.79-97.78c-1.62-14.63-5.38-29.03-10.34-43c7.33,16.95,12.55,35.27,13.88,53.83
			c1.46,18.73-1.53,37.98-9.63,55.01c-9.81,20.52-26.33,37.9-46.57,48.35c0,0-6.09,2.97-6.09,2.97c2.66-5.67,5.44-11.85,6.64-18.03
			C525.87,322.8,498.16,234.75,481.49,185.12L481.49,185.12z"/>
	</g>
	<g>
		<ellipse class="st3" cx="380.99" cy="513.12" rx="33" ry="64"/>
		<ellipse class="st4" cx="380.99" cy="484.12" rx="13" ry="26"/>
	</g>
	<g>
		<ellipse class="st3" cx="582.99" cy="513.12" rx="33" ry="64"/>
		<ellipse class="st4" cx="582.99" cy="484.12" rx="13" ry="26"/>
	</g>
	<path class="st5" d="M270.24,398.54l154.6,73.62c0,0,21.62-0.34,22.16-24.45s-0.85-40.41-17.61-42.49
		c-16.76-2.08-147.98-48.62-168.98-37.12c-21,11.5-37,30.67-37,30.67S255.92,383.66,270.24,398.54z"/>
	<path class="st5" d="M692.88,398.58l-154.6,73.62c0,0-21.62-0.34-22.16-24.45c-0.53-24.12,0.85-40.41,17.61-42.49
		c16.76-2.08,147.98-48.62,168.98-37.12s37,30.67,37,30.67S707.2,383.7,692.88,398.58z"/>
	<ellipse class="st6" cx="292.99" cy="645.62" rx="88" ry="36.5"/>
	<ellipse class="st6" cx="683.99" cy="645.62" rx="88" ry="36.5"/>
</g>
</svg>
