<svg xmlns="http://www.w3.org/2000/svg" xmlns:xlink="http://www.w3.org/1999/xlink" version="1.1" x="0px" y="0px" viewBox="0 0 100 125" enable-background="new 0 0 100 100" xml:space="preserve"><path d="M65.117,13.067c1.428-1.156,4.19-1.426,5.77,0.127c1.651,1.382,1.241,4.319,0.498,6.762  c-3.607,0.176-8.212,0.367-11.481,0.364L65.117,13.067z M61.405,32.247c0.673-0.16,1.708-0.285,3.991-0.659  c-0.427,0.64-0.872,1.289-1.333,1.943C63.082,33.004,62.186,32.581,61.405,32.247z M79.184,26.805  c-0.476,0.598-1.209,0.984-1.962,1.033c-2.033,0.233-16.704,2.194-19.834,3.393L44.26,37.492c-0.499,0.238-0.71,0.835-0.472,1.333  c0.238,0.499,0.835,0.71,1.333,0.472l12.903-6.154c0.9,0.26,3.589,1.14,6.95,3.224c2.79,1.573,0.387,5.797-0.719,7.281  c-3.436-0.498-12.766,3.864-15.885,4.635c-0.522,0.181-0.798,0.751-0.618,1.273c0.18,0.522,0.751,0.799,1.273,0.618  c0.028-0.01,12.181-4.219,12.206-4.228c0.022-0.009,2.269-0.834,3.997,0.056c1.981,1.037,3.716,5.772,0.405,9.545  c-2.131,0.424-12.707,4.522-14.983,5.284c-0.519,0.189-0.787,0.764-0.597,1.283c0.189,0.519,0.764,0.787,1.283,0.597  c1.612-0.575,12.739-4.696,14.081-5.052c3.819,2.795,3.252,7.972-1.036,10.07c-2.26,0.945-11.84,3.868-12.524,4.602  c-0.82,0.51-0.389,1.868,0.56,1.83c1.292-0.444,2.966-1.321,5.816-2.191C56.116,83.876,47.75,82.739,41.142,87.886L20.155,75.77  c17.996-29.812,2.705-31.84,11.291-41.975c1.598-1.73,3.318-2.761,3.595-2.922c6.673-2.339,14.978-7.668,23.076-8.485  c4.289-0.127,9.622-0.193,14.084-0.468c2.025-0.101,3.542-0.189,3.9-0.211C78.195,21.837,81.187,23.597,79.184,26.805z"/><text x="0" y="115" fill="#000000" font-size="5px" font-weight="bold" font-family="'Helvetica Neue', Helvetica, Arial-Unicode, Arial, Sans-serif">Created by 4urbrand</text><text x="0" y="120" fill="#000000" font-size="5px" font-weight="bold" font-family="'Helvetica Neue', Helvetica, Arial-Unicode, Arial, Sans-serif">from the Noun Project</text></svg>